<?xml version="1.0" encoding="UTF-8" standalone="no"?>
<svg
   xmlns:dc="http://purl.org/dc/elements/1.1/"
   xmlns:cc="http://creativecommons.org/ns#"
   xmlns:rdf="http://www.w3.org/1999/02/22-rdf-syntax-ns#"
   xmlns:svg="http://www.w3.org/2000/svg"
   xmlns="http://www.w3.org/2000/svg"
   viewBox="0 0 406.66666 277.33334"
   height="277.33334"
   width="406.66666"
   xml:space="preserve"
   id="svg2"
   version="1.1"><metadata
     id="metadata8"><rdf:RDF><cc:Work
         rdf:about=""><dc:format>image/svg+xml</dc:format><dc:type
           rdf:resource="http://purl.org/dc/dcmitype/StillImage" /></cc:Work></rdf:RDF></metadata><defs
     id="defs6" /><g
     transform="matrix(1.3333333,0,0,-1.3333333,0,277.33333)"
     id="g10"><g
       transform="scale(0.1)"
       id="g12"><path
         id="path14"
         style="fill:#cf991e;fill-opacity:1;fill-rule:evenodd;stroke:none"
         d="M 1520.12,30.9805 C 1408.48,31.6406 1302.3,48.8281 1201.64,82.5 c -101.02,33.629 -193.52,81.328 -277.499,142.969 -84.34,61.679 -157.5,134.332 -219.532,218.011 h -27.5 c 63.36,-88.011 138.36,-164.5 225,-229.5 87.032,-65 182.691,-115.3511 287.031,-151.0112 104.65,-35.668 215,-53.62896 330.98,-53.98833 116.33,0.35937 226.68,18.32033 331.01,53.98833 104.65,35.6601 200.32,86.0112 286.99,151.0112 87,65 162,141.489 225,229.5 h -27.5 C 2273.63,359.801 2200.47,287.148 2116.13,225.469 2032.11,163.828 1939.8,116.129 1839.14,82.5 1738.48,48.8281 1632.11,31.6406 1520.12,30.9805 M 509.609,1115 h -22.5 c 7.692,107.97 30.661,210.31 69.02,306.99 38.32,96.64 89.34,185 153.012,265 63.629,80.31 137.5,149.85 221.48,208.48 83.989,58.67 175.829,104.02 275.509,136.01 99.65,32 204.34,48.17 313.99,48.52 110,-0.35 214.68,-16.52 314.02,-48.52 99.65,-31.99 191.48,-77.34 275.47,-136.01 84.34,-58.63 158.36,-127.97 222.03,-207.97 63.63,-80.35 114.49,-168.87 152.5,-265.51 38.32,-96.33 61.33,-198.67 68.98,-306.99 h -21.99 c -7.65,105.66 -30.35,205.66 -68.01,300 -37.34,94.34 -87.14,180.66 -149.49,258.98 -62.34,78.32 -134.68,146.18 -216.99,203.52 -82.34,57.3 -172.19,101.48 -269.53,132.5 -97.31,31.33 -199.65,47.3 -306.99,47.97 -107.35,-0.31 -209.65,-16.13 -307,-47.5 -97.34,-31.33 -187.14,-75.67 -269.491,-132.97 -81.988,-57.34 -154.18,-125.2 -216.52,-203.52 -62.308,-78.32 -112.308,-164.64 -150,-258.98 -37.308,-94.34 -59.808,-194.34 -67.5,-300" /><path
         id="path16"
         style="fill:#59617d;fill-opacity:1;fill-rule:evenodd;stroke:none"
         d="m 1398.12,1402.5 h -44.49 v -78.01 h 44.49 v 78.01 m 0,-215 v 77.97 h -44.49 v -77.97 h 44.49 m 730,-98.01 v 78.01 h -44.49 v -78.01 h 44.49 m -441.99,464.49 h -44.49 v -78 h 44.49 v 78 m -166.01,373.01 c -93.01,-0.35 -181.64,-14.02 -265.98,-41.01 -84.34,-26.64 -162.19,-64.65 -233.52,-113.99 -71.319,-49.02 -134.171,-107.34 -188.511,-175 -53.988,-67.34 -97.5,-141.68 -130.468,-223.01 -33.012,-81.32 -53.36,-167.65 -61.02,-258.98 h 266.02 v 258.98 H 1118.12 V 1115 h 44.5 v 370 h 91.52 v -221.52 h 44.49 v 456.01 h 154.49 v -536.52 h 45 v 415.51 h 236.49 v -557 h 44.53 v 427 h 126.48 V 1115 h 44.5 v 110.47 h 233.51 V 1115 h 215.98 c -7.66,91.33 -27.97,177.66 -60.98,258.98 -33.01,81.33 -76.52,155.67 -130.51,223.01 -54.33,67.35 -117.14,125.67 -188.51,175 -71.33,49.34 -149.14,87.35 -233.48,113.99 -84.33,26.99 -173.01,40.66 -266.01,41.01 M 874.141,443.48 H 2166.13 c -54.02,-58.011 -114.84,-108.011 -182.5,-150 -67.34,-42 -140.15,-74.339 -218.51,-97 -78.01,-23 -159.65,-34.492 -245,-34.492 -85.32,0.313 -167,11.84 -245,34.492 -78.32,22.661 -151.33,55 -218.99,97 -67.341,41.989 -128.009,91.989 -181.989,150" /><path
         id="path18"
         style="fill:#59617d;fill-opacity:1;fill-rule:evenodd;stroke:none"
         d="m 0.941406,797.578 v 50.004 C 10,839.961 19.8398,834.262 30.4688,830.469 c 10.621,-3.789 21.371,-5.699 32.1914,-5.699 6.3593,0 11.9101,0.582 16.6406,1.71 4.7187,1.141 8.7109,2.739 11.8711,4.77 3.1679,2.031 5.5469,4.41 7.1094,7.191 1.5585,2.77 2.3397,5.739 2.3397,8.981 0,4.379 -1.2421,8.277 -3.7421,11.719 -2.5,3.441 -5.8984,6.597 -10.2383,9.531 -4.3398,2.93 -9.4492,5.738 -15.3906,8.437 -5.9414,2.692 -12.3398,5.473 -19.2187,8.282 -17.5,7.308 -30.5508,16.211 -39.1407,26.718 C 4.30078,922.621 0,935.352 0,950.23 c 0,11.68 2.33984,21.68 7.03125,30.079 4.68755,8.402 11.05855,15.281 19.14065,20.711 8.0898,5.43 17.4179,9.41 28.0469,11.95 10.621,2.54 21.871,3.83 33.75,3.83 11.6796,0 21.9922,-0.71 31.0112,-2.11 9.032,-1.41 17.309,-3.56 24.93,-6.49 v -46.72 c -3.75,2.622 -7.859,4.891 -12.269,6.879 -4.411,1.993 -8.981,3.629 -13.672,4.922 -4.688,1.289 -9.34,2.27 -13.989,2.891 -4.6402,0.629 -9.0191,0.937 -13.1987,0.937 -5.7422,0 -10.9415,-0.55 -15.6211,-1.64 -4.6914,-1.09 -8.6407,-2.617 -11.8789,-4.61 -3.2422,-1.988 -5.7422,-4.339 -7.5,-7.109 -1.7618,-2.77 -2.6602,-5.859 -2.6602,-9.301 0,-3.75 0.9805,-7.109 2.9687,-10.07 2,-2.969 4.8086,-5.789 8.4415,-8.438 3.6289,-2.66 8.0898,-5.281 13.2773,-7.82 5.2031,-2.531 11.1016,-5.191 17.6602,-7.891 8.9412,-3.75 16.9922,-7.73 24.1402,-11.949 7.153,-4.222 13.243,-8.98 18.36,-14.301 5.121,-5.308 9.019,-11.359 11.722,-18.199 2.688,-6.832 4.059,-14.761 4.059,-23.832 0,-12.5 -2.379,-23 -7.109,-31.48 -4.731,-8.481 -11.172,-15.348 -19.301,-20.629 -8.121,-5.27 -17.57,-9.02 -28.3595,-11.32 -10.7813,-2.309 -22.1407,-3.442 -34.1407,-3.442 -12.3007,0 -23.9804,1.051 -35.0703,3.121 -11.0976,2.071 -20.71091,5.199 -28.828094,9.379 z M 329.531,875.699 V 854.922 H 225.16 c 1.68,-23.242 16.289,-34.84 43.899,-34.84 17.621,0 33.089,4.18 46.41,12.5 v -35.633 c -14.809,-7.929 -34.02,-11.871 -57.66,-11.871 -25.821,0 -45.899,7.152 -60.149,21.481 -14.262,14.339 -21.41,34.3 -21.41,59.921 0,26.571 7.699,47.622 23.129,63.129 15.422,15.512 34.371,23.282 56.871,23.282 23.32,0 41.371,-6.911 54.141,-20.782 12.769,-13.871 19.14,-32.66 19.14,-56.41 z M 224.84,885.23 h 58.91 c 0,22.93 -9.262,34.379 -27.809,34.379 -7.929,0 -14.769,-3.277 -20.55,-9.839 -5.782,-6.571 -9.301,-14.731 -10.551,-24.54 z m 267.191,-0.621 V 788.98 h -46.722 v 22.969 h -0.618 c -10.742,-17.929 -26.601,-26.871 -47.66,-26.871 -15.511,0 -27.73,4.41 -36.64,13.203 -8.911,8.789 -13.36,20.551 -13.36,35.239 0,31.05 18.399,48.941 55.16,53.75 l 43.43,5.781 c 0,17.5 -9.492,26.25 -28.43,26.25 -19.07,0 -37.191,-5.672 -54.382,-17.031 v 37.179 c 6.882,3.563 16.293,6.68 28.211,9.383 11.91,2.688 22.769,4.059 32.57,4.059 45.629,0 68.441,-22.77 68.441,-68.282 z m -46.41,-30.629 v 10.79 l -29.062,-3.75 c -16.047,-2.071 -24.059,-9.34 -24.059,-21.719 0,-5.629 1.949,-10.242 5.859,-13.832 3.911,-3.59 9.18,-5.387 15.86,-5.387 9.261,0 16.832,3.199 22.66,9.609 5.82,6.399 8.742,14.489 8.742,24.289 z m 75,-60.781 v 40 c 8.129,-4.879 16.219,-8.551 24.301,-10.929 8.09,-2.391 15.699,-3.598 22.887,-3.598 8.75,0 15.671,1.207 20.711,3.598 5.031,2.378 7.57,6.05 7.57,10.929 0,3.133 -1.129,5.75 -3.43,7.821 -2.308,2.07 -5.238,3.902 -8.832,5.46 -3.598,1.571 -7.539,2.969 -11.797,4.219 -4.261,1.25 -8.402,2.66 -12.34,4.223 -6.371,2.379 -11.961,4.957 -16.8,7.738 -4.84,2.77 -8.911,5.969 -12.192,9.61 -3.277,3.628 -5.777,7.851 -7.5,12.652 -1.719,4.808 -2.578,10.469 -2.578,17.027 0,8.949 1.957,16.68 5.859,23.133 3.911,6.438 9.11,11.758 15.629,15.859 6.52,4.098 13.942,7.149 22.34,9.059 8.403,1.91 17.11,2.891 26.172,2.891 7.078,0 14.258,-0.551 21.57,-1.641 7.297,-1.09 14.489,-2.699 21.559,-4.77 v -38.121 c -6.25,3.629 -12.93,6.371 -20.078,8.2 -7.152,1.839 -14.141,2.742 -21.012,2.742 -3.25,0 -6.289,-0.281 -9.14,-0.86 -2.86,-0.589 -5.399,-1.41 -7.579,-2.5 -2.191,-1.101 -3.91,-2.5 -5.16,-4.222 -1.25,-1.719 -1.871,-3.668 -1.871,-5.86 0,-2.929 0.93,-5.429 2.809,-7.5 1.871,-2.07 4.332,-3.871 7.34,-5.39 3.011,-1.52 6.371,-2.848 10.082,-4.059 3.711,-1.211 7.379,-2.43 11.019,-3.68 6.559,-2.3 12.5,-4.8 17.809,-7.5 5.312,-2.691 9.883,-5.89 13.672,-9.531 3.789,-3.629 6.718,-7.929 8.75,-12.808 2.031,-4.879 3.05,-10.743 3.05,-17.5 0,-9.493 -2.07,-17.582 -6.171,-24.301 -4.11,-6.711 -9.571,-12.18 -16.411,-16.399 -6.839,-4.222 -14.687,-7.312 -23.589,-9.222 -8.911,-1.918 -18.168,-2.891 -27.739,-2.891 -17.621,0 -33.91,2.692 -48.91,8.121 z m 176.258,181.102 c -8.328,0 -15.16,2.461 -20.469,7.418 -5.32,4.961 -7.969,11.011 -7.969,18.203 0,7.378 2.649,13.438 7.969,18.128 5.309,4.68 12.141,7.03 20.469,7.03 8.43,0 15.269,-2.35 20.543,-7.03 5.277,-4.69 7.887,-10.75 7.887,-18.128 0,-7.5 -2.61,-13.633 -7.887,-18.442 -5.274,-4.8 -12.113,-7.179 -20.543,-7.179 z M 721.25,788.98 h -49.3711 v 160 H 721.25 Z m 198.129,236.88 V 788.98 H 870 v 22.04 h -0.621 c -11.258,-17.309 -27.777,-25.942 -49.539,-25.942 -20,0 -36.09,7.07 -48.281,21.172 -12.18,14.102 -18.278,33.832 -18.278,59.141 0,26.449 6.719,47.66 20.16,63.589 13.438,15.942 31.047,23.911 52.809,23.911 20.629,0 35,-7.379 43.129,-22.192 H 870 v 95.161 z M 870.941,866.801 v 12.031 c 0,10.43 -3.011,19.059 -9.062,25.938 -6.059,6.871 -13.91,10.312 -23.598,10.312 -10.941,0 -19.492,-4.301 -25.621,-12.891 -6.14,-8.601 -9.219,-20.39 -9.219,-35.39 0,-14.071 2.969,-24.891 8.899,-32.5 5.941,-7.621 14.18,-11.41 24.691,-11.41 10,0 18.168,4.019 24.449,12.031 6.29,8.008 9.461,18.629 9.461,31.879 z m 233.749,8.898 v -20.777 h -104.38 c 1.68,-23.242 16.29,-34.84 43.91,-34.84 17.62,0 33.08,4.18 46.4,12.5 v -35.633 c -14.8,-7.929 -34.02,-11.871 -57.65,-11.871 -25.82,0 -45.9,7.152 -60.161,21.481 -14.258,14.339 -21.399,34.3 -21.399,59.921 0,26.571 7.692,47.622 23.121,63.129 15.43,15.512 34.379,23.282 56.879,23.282 23.32,0 41.36,-6.911 54.14,-20.782 12.77,-13.871 19.14,-32.66 19.14,-56.41 z M 1000,885.23 h 58.91 c 0,22.93 -9.26,34.379 -27.82,34.379 -7.93,0 -14.76,-3.277 -20.54,-9.839 -5.78,-6.571 -9.3,-14.731 -10.55,-24.54 z m 299.53,-42.179 v -46.102 c -16.37,-7.929 -37.69,-11.871 -64.06,-11.871 -34.38,0 -61.41,10.121 -81.09,30.313 -19.69,20.199 -29.54,47.148 -29.54,80.781 0,35.816 11.06,64.879 33.21,87.187 22.15,22.301 50.86,33.441 86.17,33.441 21.87,0 40.31,-2.78 55.31,-8.28 v -48.598 c -15,8.949 -32.07,13.437 -51.25,13.437 -21.05,0 -38.01,-6.597 -50.94,-19.839 -12.93,-13.25 -19.37,-31.141 -19.37,-53.75 0,-21.68 6.09,-38.95 18.28,-51.801 12.19,-12.848 28.59,-19.297 49.22,-19.297 19.69,0 37.69,4.808 54.06,14.379 z M 1410,785.078 c -26.68,0 -47.62,7.461 -62.89,22.422 -15.27,14.961 -22.89,35.23 -22.89,60.859 0,26.442 7.93,47.153 23.75,62.11 15.82,14.961 37.23,22.422 64.22,22.422 26.56,0 47.38,-7.461 62.5,-22.422 15.11,-14.957 22.65,-34.731 22.65,-59.297 0,-26.563 -7.77,-47.543 -23.36,-62.973 -15.58,-15.429 -36.91,-23.121 -63.98,-23.121 z m 1.25,130.004 c -11.68,0 -20.74,-4.031 -27.19,-12.031 -6.44,-8.012 -9.68,-19.379 -9.68,-34.071 0,-30.742 12.38,-46.089 37.18,-46.089 23.64,0 35.47,15.781 35.47,47.339 0,29.891 -11.91,44.852 -35.78,44.852 z m 272.66,-28.133 V 788.98 h -49.22 v 88.911 c 0,24.808 -8.87,37.191 -26.57,37.191 -8.55,0 -15.58,-3.281 -21.09,-9.852 -5.51,-6.558 -8.28,-14.878 -8.28,-25 v -91.25 h -49.37 v 160 h 49.37 v -25.308 h 0.63 c 11.75,19.488 28.9,29.219 51.4,29.219 35.43,0 53.13,-21.993 53.13,-65.942 z m 195.62,138.911 V 788.98 h -49.37 v 22.04 h -0.63 c -11.25,-17.309 -27.77,-25.942 -49.53,-25.942 -20,0 -36.09,7.07 -48.28,21.172 -12.19,14.102 -18.28,33.832 -18.28,59.141 0,26.449 6.72,47.66 20.15,63.589 13.44,15.942 31.06,23.911 52.82,23.911 20.62,0 35,-7.379 43.12,-22.192 h 0.63 v 95.161 z m -48.44,-159.059 v 12.031 c 0,10.43 -3,19.059 -9.06,25.938 -6.05,6.871 -13.91,10.312 -23.59,10.312 -10.94,0 -19.49,-4.301 -25.63,-12.891 -6.13,-8.601 -9.22,-20.39 -9.22,-35.39 0,-14.071 2.97,-24.891 8.91,-32.5 5.94,-7.621 14.18,-11.41 24.69,-11.41 10,0 18.16,4.019 24.45,12.031 6.29,8.008 9.45,18.629 9.45,31.879 z m 166.25,-81.723 c -26.68,0 -47.61,7.461 -62.89,22.422 -15.27,14.961 -22.89,35.23 -22.89,60.859 0,26.442 7.93,47.153 23.75,62.11 15.82,14.961 37.23,22.422 64.22,22.422 26.56,0 47.38,-7.461 62.5,-22.422 15.12,-14.957 22.66,-34.731 22.66,-59.297 0,-26.563 -7.78,-47.543 -23.36,-62.973 -15.59,-15.429 -36.92,-23.121 -63.99,-23.121 z m 1.25,130.004 c -11.68,0 -20.74,-4.031 -27.18,-12.031 -6.45,-8.012 -9.69,-19.379 -9.69,-34.071 0,-30.742 12.38,-46.089 37.19,-46.089 23.63,0 35.47,15.781 35.47,47.339 0,29.891 -11.92,44.852 -35.79,44.852 z m 365.16,97.968 h 50.94 l -59.22,-224.07 h -55.94 l -37.19,143.75 c -1.99,7.5 -3.16,15.899 -3.59,25.161 h -0.63 c -0.93,-10.192 -2.3,-18.59 -4.06,-25.161 l -38.12,-143.75 h -58.28 l -58.91,224.07 h 55.16 l 31.56,-149.218 c 1.37,-6.371 2.34,-14.883 2.97,-25.633 h 0.94 c 0.42,8.012 1.91,16.762 4.53,26.25 l 40.62,148.601 h 54.06 l 36.72,-150.468 c 1.37,-5.512 2.54,-13.562 3.6,-24.062 h 0.62 c 0.43,8.242 1.52,16.562 3.28,25 z M 2571.41,884.609 V 788.98 h -46.72 v 22.969 h -0.63 c -10.74,-17.929 -26.6,-26.871 -47.65,-26.871 -15.51,0 -27.74,4.41 -36.64,13.203 -8.91,8.789 -13.36,20.551 -13.36,35.239 0,31.05 18.39,48.941 55.15,53.75 l 43.44,5.781 c 0,17.5 -9.49,26.25 -28.44,26.25 -19.06,0 -37.18,-5.672 -54.37,-17.031 v 37.179 c 6.87,3.563 16.29,6.68 28.2,9.383 11.91,2.688 22.77,4.059 32.58,4.059 45.62,0 68.44,-22.77 68.44,-68.282 z M 2525,853.98 v 10.79 l -29.06,-3.75 c -16.06,-2.071 -24.06,-9.34 -24.06,-21.719 0,-5.629 1.95,-10.242 5.85,-13.832 3.91,-3.59 9.18,-5.387 15.86,-5.387 9.26,0 16.84,3.199 22.66,9.609 5.82,6.399 8.75,14.489 8.75,24.289 z m 182.19,-26.558 v -36.563 c -7.31,-3.871 -18.28,-5.781 -32.97,-5.781 -34.81,0 -52.19,18.082 -52.19,54.223 v 73.281 h -25.94 v 36.398 h 25.94 v 34.54 l 49.22,14.062 V 948.98 h 35.94 v -36.398 h -35.94 v -64.691 c 0,-16.68 6.6,-25 19.84,-25 5.2,0 10.59,1.519 16.1,4.531 z m 149.06,7.027 V 794.77 c -11.13,-6.45 -27.23,-9.692 -48.28,-9.692 -24.57,0 -44.49,7.461 -59.69,22.344 -15.19,14.879 -22.81,34.098 -22.81,57.66 0,27.188 8.16,48.629 24.45,64.297 16.29,15.66 38.09,23.512 65.39,23.512 18.87,0 32.5,-2.5 40.94,-7.5 V 903.52 c -10.31,7.691 -21.84,11.562 -34.53,11.562 -14.18,0 -25.39,-4.141 -33.67,-12.422 -8.28,-8.281 -12.43,-19.73 -12.43,-34.301 0,-14.179 3.95,-25.269 11.88,-33.359 7.93,-8.09 18.79,-12.109 32.66,-12.109 12.3,0 24.33,3.871 36.09,11.558 z m 185.94,52.821 v -98.29 h -49.22 v 90.942 c 0,23.437 -8.56,35.16 -25.63,35.16 -8.75,0 -15.82,-3.281 -21.25,-9.852 -5.43,-6.558 -8.12,-14.878 -8.12,-25 v -91.25 h -49.38 v 236.88 h 49.38 V 925.23 h 0.62 c 12.07,18.442 28.48,27.661 49.22,27.661 36.25,0 54.38,-21.871 54.38,-65.621 z" /><path
         id="path20"
         style="fill:#59617d;fill-opacity:1;fill-rule:evenodd;stroke:none"
         d="m 105.82,681.602 h 23.09 l -2.699,-39.024 h -17.66 z m -34.7302,0 H 94.1016 L 91.4805,642.77 H 73.6289 Z M 200.738,597.422 H 187.191 V 553.98 h -28.402 v 126.059 h 44.492 c 31.758,0 47.617,-13.398 47.617,-40.199 0,-12.649 -4.527,-22.891 -13.628,-30.699 -9.149,-7.813 -21.29,-11.719 -36.532,-11.719 z m -2.379,60.816 h -11.168 v -39.289 h 11.168 c 15.121,0 22.692,6.602 22.692,19.84 0,12.973 -7.571,19.449 -22.692,19.449 z M 347.5,602.77 v -11.68 h -58.711 c 0.941,-13.078 9.18,-19.61 24.691,-19.61 9.918,0 18.629,2.348 26.129,7.04 v -20.04 c -8.32,-4.46 -19.14,-6.679 -32.461,-6.679 -14.527,0 -25.777,4.019 -33.828,12.07 -8.011,8.039 -12.031,19.289 -12.031,33.707 0,14.961 4.332,26.801 13.012,35.512 8.668,8.75 19.328,13.082 31.988,13.082 13.121,0 23.281,-3.871 30.473,-11.684 7.148,-7.769 10.738,-18.359 10.738,-31.718 z m -58.871,5.351 h 33.133 c 0,12.899 -5.242,19.34 -15.672,19.34 -4.449,0 -8.281,-1.84 -11.52,-5.551 -3.281,-3.672 -5.23,-8.281 -5.941,-13.789 z M 438.91,607.77 v -53.79 h -26.289 v 12.93 h -0.351 c -6.02,-10.07 -14.969,-15.109 -26.801,-15.109 -8.707,0 -15.59,2.461 -20.59,7.418 -5.039,4.961 -7.539,11.562 -7.539,19.801 0,17.46 10.359,27.539 31.019,30.242 l 24.45,3.277 c 0,9.84 -5.348,14.762 -16.008,14.762 -10.711,0 -20.903,-3.199 -30.59,-9.602 v 20.93 c 3.867,1.992 9.18,3.75 15.898,5.281 6.68,1.52 12.813,2.262 18.321,2.262 25.66,0 38.48,-12.774 38.48,-38.402 z m -26.101,-17.219 v 6.051 l -16.36,-2.114 c -9.027,-1.168 -13.519,-5.226 -13.519,-12.187 0,-3.16 1.09,-5.781 3.281,-7.813 2.23,-1.988 5.199,-3.008 8.949,-3.008 5.192,0 9.449,1.801 12.731,5.399 3.281,3.59 4.918,8.16 4.918,13.672 z M 529.102,579.57 v -22.34 c -6.293,-3.64 -15.352,-5.429 -27.192,-5.429 -13.82,0 -25,4.179 -33.551,12.578 -8.558,8.351 -12.847,19.172 -12.847,32.422 0,15.269 4.609,27.34 13.789,36.168 9.14,8.793 21.398,13.203 36.75,13.203 10.629,0 18.289,-1.402 23.051,-4.223 v -23.551 c -5.821,4.332 -12.301,6.524 -19.454,6.524 -7.968,0 -14.257,-2.344 -18.91,-6.992 -4.687,-4.649 -6.988,-11.09 -6.988,-19.301 0,-7.969 2.23,-14.219 6.68,-18.75 4.449,-4.57 10.55,-6.828 18.359,-6.828 6.91,0 13.672,2.179 20.313,6.519 z m 99.019,23.2 V 591.09 H 569.41 c 0.942,-13.078 9.18,-19.61 24.731,-19.61 9.879,0 18.589,2.348 26.089,7.04 v -20.04 c -8.32,-4.46 -19.14,-6.679 -32.421,-6.679 -14.528,0 -25.821,4.019 -33.86,12.07 -8.008,8.039 -12.039,19.289 -12.039,33.707 0,14.961 4.34,26.801 13.012,35.512 8.668,8.75 19.34,13.082 31.988,13.082 13.129,0 23.289,-3.871 30.469,-11.684 7.191,-7.769 10.742,-18.359 10.742,-31.718 z m -58.859,5.351 h 33.117 c 0,12.899 -5.188,19.34 -15.617,19.34 -4.461,0 -8.321,-1.84 -11.563,-5.551 -3.25,-3.672 -5.238,-8.281 -5.937,-13.789 z m 167.968,-56.32 c -15,0 -26.8,4.179 -35.39,12.609 -8.602,8.399 -12.891,19.809 -12.891,34.219 0,14.891 4.449,26.531 13.352,34.922 8.91,8.437 20.98,12.621 36.14,12.621 14.957,0 26.68,-4.184 35.149,-12.621 8.519,-8.391 12.738,-19.492 12.738,-33.321 0,-14.96 -4.379,-26.75 -13.129,-35.429 -8.75,-8.672 -20.738,-13 -35.969,-13 z m 0.7,73.121 c -6.559,0 -11.68,-2.262 -15.309,-6.762 -3.641,-4.531 -5.43,-10.89 -5.43,-19.18 0,-17.261 6.95,-25.929 20.899,-25.929 13.32,0 19.961,8.898 19.961,26.64 0,16.829 -6.723,25.231 -20.121,25.231 z m 125.16,62.656 V 665.98 c -3.602,1.399 -7.039,2.11 -10.32,2.11 -8.899,0 -13.36,-4.852 -13.36,-14.539 V 643.98 H 860 v -20.46 h -20.59 v -69.54 h -27.648 v 69.54 h -15.121 v 20.46 h 15.121 v 11.18 c 0,10.231 3.316,18.512 10,24.762 6.679,6.289 15.777,9.418 27.258,9.418 5.628,0 10.32,-0.59 14.07,-1.762 z m 206.25,-7.539 V 553.98 h -28.01 v 75.43 c 0,8.129 0.35,17.11 1.05,26.961 h -0.7 c -1.48,-7.742 -2.81,-13.281 -3.98,-16.68 l -29.54,-85.711 h -23.199 l -30.039,84.809 c -0.82,2.301 -2.152,8.16 -3.942,17.582 h -0.82 c 0.781,-12.422 1.168,-23.32 1.168,-32.699 V 553.98 h -25.59 v 126.059 h 41.563 l 25.75,-74.73 c 2.07,-5.969 3.551,-11.989 4.488,-18.008 h 0.551 c 1.558,6.961 3.24,13.051 5,18.211 l 25.74,74.527 z m 40,-21.801 c -4.69,0 -8.52,1.371 -11.53,4.141 -2.97,2.82 -4.45,6.211 -4.45,10.281 0,4.141 1.48,7.539 4.45,10.192 3.01,2.617 6.84,3.949 11.53,3.949 4.76,0 8.59,-1.332 11.56,-3.949 2.97,-2.653 4.45,-6.051 4.45,-10.192 0,-4.219 -1.48,-7.699 -4.45,-10.39 -2.97,-2.7 -6.8,-4.032 -11.56,-4.032 z m 13.71,-104.258 h -27.7813 v 90 h 27.7813 z m 110.31,55.122 V 553.98 h -27.7 v 50 c 0,13.95 -4.96,20.942 -14.92,20.942 -4.8,0 -8.79,-1.832 -11.87,-5.543 -3.13,-3.68 -4.65,-8.359 -4.65,-14.07 V 553.98 h -27.77 v 90 h 27.77 v -14.21 h 0.35 c 6.6,10.929 16.25,16.402 28.91,16.402 19.92,0 29.88,-12.344 29.88,-37.07 z M 1343.4,687.23 V 553.98 h -27.78 v 12.391 h -0.35 c -6.32,-9.73 -15.62,-14.57 -27.85,-14.57 -11.25,0 -20.31,3.937 -27.19,11.91 -6.83,7.93 -10.27,19.019 -10.27,33.238 0,14.891 3.79,26.84 11.33,35.781 7.58,8.989 17.46,13.442 29.73,13.442 11.6,0 19.68,-4.141 24.25,-12.461 h 0.35 v 53.519 z m -27.27,-89.46 v 6.761 c 0,5.86 -1.68,10.699 -5.08,14.571 -3.39,3.867 -7.81,5.82 -13.28,5.82 -6.13,0 -10.93,-2.422 -14.41,-7.262 -3.44,-4.851 -5.2,-11.449 -5.2,-19.89 0,-7.93 1.68,-14.02 5.04,-18.282 3.32,-4.289 7.97,-6.437 13.87,-6.437 5.63,0 10.23,2.258 13.75,6.789 3.56,4.5 5.31,10.469 5.31,17.93 z M 1485.16,680.039 1530,553.98 h -30.94 l -8.98,28.051 h -44.81 l -8.9,-28.051 h -30.75 l 45.86,126.059 z m -33.83,-76.211 h 32.26 l -13.55,42.344 c -0.98,3.168 -1.68,6.949 -2.11,11.367 h -0.7 c -0.28,-3.711 -1.02,-7.379 -2.19,-11.019 z m 196.25,40.152 h 25.74 l -25.9,-90 h -29.18 l -13.28,52.739 c -0.9,3.511 -1.37,7.34 -1.48,11.519 h -0.55 c -0.39,-4.566 -0.98,-8.277 -1.76,-11.168 l -14.22,-53.09 h -28.83 l -25.42,90 h 28.32 l 12.38,-58.71 c 0.58,-2.731 1.01,-6.09 1.33,-10 h 0.5 c 0.32,4.109 0.82,7.539 1.61,10.351 l 15.46,58.359 h 26.45 l 13.91,-58.71 c 0.35,-1.442 0.74,-4.84 1.21,-10.192 h 0.62 c 0.28,3.402 0.74,6.801 1.41,10.192 z m 113.83,-36.21 v -53.79 h -26.29 v 12.93 h -0.35 c -6.02,-10.07 -14.97,-15.109 -26.8,-15.109 -8.75,0 -15.59,2.461 -20.63,7.418 -5,4.961 -7.5,11.562 -7.5,19.801 0,17.46 10.36,27.539 31.02,30.242 l 24.45,3.277 c 0,9.84 -5.35,14.762 -16.01,14.762 -10.71,0 -20.9,-3.199 -30.59,-9.602 v 20.93 c 3.87,1.992 9.18,3.75 15.86,5.281 6.72,1.52 12.81,2.262 18.32,2.262 25.66,0 38.52,-12.774 38.52,-38.402 z m -26.1,-17.219 v 6.051 l -16.36,-2.114 c -9.03,-1.168 -13.52,-5.226 -13.52,-12.187 0,-3.16 1.09,-5.781 3.28,-7.813 2.19,-1.988 5.16,-3.008 8.91,-3.008 5.23,0 9.49,1.801 12.77,5.399 3.28,3.59 4.92,8.16 4.92,13.672 z m 106.25,53.429 h 27.5 l -36.56,-97.179 c -8.79,-23.403 -22.03,-35.082 -39.73,-35.082 -6.72,0 -12.26,0.742 -16.6,2.261 v 22.149 c 3.67,-2.149 7.7,-3.238 12.03,-3.238 7.15,0 12.15,3.359 14.96,10.121 l 4.73,11.168 -36.56,89.8 h 30.78 l 16.76,-54.761 c 1.05,-3.399 1.87,-7.379 2.46,-12.028 h 0.35 c 0.55,3.399 1.52,7.34 2.93,11.868 z m 147.03,43.598 V 665.98 c -3.55,1.399 -6.99,2.11 -10.27,2.11 -8.91,0 -13.36,-4.852 -13.36,-14.539 v -9.571 h 20.55 v -20.46 h -20.55 v -69.54 h -27.69 v 69.54 h -15.12 v 20.46 h 15.12 v 11.18 c 0,10.231 3.35,18.512 10.03,24.762 6.68,6.289 15.75,9.418 27.23,9.418 5.63,0 10.31,-0.59 14.06,-1.762 z m 68.99,-43.047 v -25.582 c -3.32,1.789 -7.23,2.731 -11.68,2.731 -6.02,0 -10.74,-2.231 -14.14,-6.641 -3.4,-4.449 -5.12,-10.469 -5.12,-18.09 V 553.98 h -27.77 v 90 h 27.77 v -16.679 h 0.35 c 4.42,12.187 12.31,18.289 23.75,18.289 2.93,0 5.2,-0.36 6.84,-1.059 z m 55.82,-92.73 c -15,0 -26.8,4.179 -35.35,12.609 -8.6,8.399 -12.89,19.809 -12.89,34.219 0,14.891 4.45,26.531 13.36,34.922 8.9,8.437 20.93,12.621 36.13,12.621 14.92,0 26.64,-4.184 35.15,-12.621 8.48,-8.391 12.74,-19.492 12.74,-33.321 0,-14.96 -4.38,-26.75 -13.13,-35.429 -8.79,-8.672 -20.78,-13 -36.01,-13 z m 0.7,73.121 c -6.56,0 -11.64,-2.262 -15.27,-6.762 -3.63,-4.531 -5.47,-10.89 -5.47,-19.18 0,-17.261 6.99,-25.929 20.94,-25.929 13.28,0 19.92,8.898 19.92,26.64 0,16.829 -6.68,25.231 -20.12,25.231 z m 209.38,-14.961 V 553.98 h -27.7 v 51.329 c 0,13.089 -4.8,19.613 -14.41,19.613 -4.57,0 -8.28,-1.953 -11.17,-5.902 -2.86,-3.899 -4.3,-8.821 -4.3,-14.68 v -50.36 h -27.78 v 51.879 c 0,12.692 -4.72,19.063 -14.14,19.063 -4.76,0 -8.55,-1.871 -11.4,-5.621 -2.81,-3.75 -4.26,-8.871 -4.26,-15.321 v -50 h -27.77 v 90 h 27.77 v -14.058 h 0.35 c 2.89,4.808 6.92,8.707 12.11,11.719 5.16,3.05 10.82,4.531 16.99,4.531 12.7,0 21.41,-5.582 26.1,-16.762 6.87,11.18 16.95,16.762 30.23,16.762 19.57,0 29.38,-12.07 29.38,-36.211 z m 183.4,70.078 V 553.98 h -28.48 v 51.329 h -52.19 V 553.98 h -28.4 v 126.059 h 28.4 V 629.77 h 52.19 v 50.269 z m 69.02,-128.238 c -15,0 -26.8,4.179 -35.39,12.609 -8.6,8.399 -12.89,19.809 -12.89,34.219 0,14.891 4.45,26.531 13.36,34.922 8.9,8.437 20.97,12.621 36.13,12.621 14.96,0 26.68,-4.184 35.16,-12.621 8.51,-8.391 12.73,-19.492 12.73,-33.321 0,-14.96 -4.38,-26.75 -13.12,-35.429 -8.76,-8.672 -20.75,-13 -35.98,-13 z m 0.7,73.121 c -6.56,0 -11.68,-2.262 -15.31,-6.762 -3.63,-4.531 -5.43,-10.89 -5.43,-19.18 0,-17.261 6.95,-25.929 20.9,-25.929 13.32,0 19.96,8.898 19.96,26.64 0,16.829 -6.72,25.231 -20.12,25.231 z m 209.34,-14.961 V 553.98 h -27.7 v 51.329 c 0,13.089 -4.8,19.613 -14.41,19.613 -4.57,0 -8.28,-1.953 -11.13,-5.902 -2.9,-3.899 -4.34,-8.821 -4.34,-14.68 v -50.36 h -27.77 v 51.879 c 0,12.692 -4.69,19.063 -14.14,19.063 -4.73,0 -8.52,-1.871 -11.37,-5.621 -2.85,-3.75 -4.26,-8.871 -4.26,-15.321 v -50 h -27.77 v 90 h 27.77 v -14.058 h 0.35 c 2.85,4.808 6.88,8.707 12.07,11.719 5.2,3.05 10.86,4.531 16.99,4.531 12.74,0 21.45,-5.582 26.14,-16.762 6.83,11.18 16.91,16.762 30.23,16.762 19.57,0 29.34,-12.07 29.34,-36.211 z m 102.85,-7.191 v -11.68 h -58.71 c 0.94,-13.078 9.14,-19.61 24.69,-19.61 9.88,0 18.59,2.348 26.09,7.04 v -20.04 c -8.32,-4.46 -19.14,-6.679 -32.42,-6.679 -14.53,0 -25.82,4.019 -33.83,12.07 -8.05,8.039 -12.07,19.289 -12.07,33.707 0,14.961 4.34,26.801 13.01,35.512 8.67,8.75 19.33,13.082 31.99,13.082 13.12,0 23.28,-3.871 30.47,-11.684 7.19,-7.769 10.78,-18.359 10.78,-31.718 z m -58.91,5.351 h 33.13 c 0,12.899 -5.2,19.34 -15.63,19.34 -4.45,0 -8.32,-1.84 -11.56,-5.551 -3.24,-3.672 -5.23,-8.281 -5.94,-13.789 z m 113.91,73.481 h 23.12 l -2.73,-39.024 h -17.66 z m -34.73,0 h 23.05 l -2.66,-38.832 h -17.81 z" /></g></g></svg>